<svg width="24" height="24" viewBox="0 0 24 24" fill="none" xmlns="http://www.w3.org/2000/svg">
<path fill-rule="evenodd" clip-rule="evenodd" d="M15.7134 8.29011C15.5256 8.1008 15.27 7.99431 15.0034 7.99431C14.7367 7.99431 14.4811 8.1008 14.2934 8.29011L12.0034 10.5901L9.71336 8.29011C9.32124 7.89799 8.68548 7.89799 8.29336 8.29011C7.90123 8.68223 7.90123 9.31799 8.29336 9.71011L10.5934 12.0001L8.29336 14.2901C8.10404 14.4779 7.99756 14.7335 7.99756 15.0001C7.99756 15.2667 8.10404 15.5223 8.29336 15.7101C8.48112 15.8994 8.73672 16.0059 9.00336 16.0059C9.26999 16.0059 9.52559 15.8994 9.71336 15.7101L12.0034 13.4101L14.2934 15.7101C14.4811 15.8994 14.7367 16.0059 15.0034 16.0059C15.27 16.0059 15.5256 15.8994 15.7134 15.7101C15.9027 15.5223 16.0092 15.2667 16.0092 15.0001C16.0092 14.7335 15.9027 14.4779 15.7134 14.2901L13.4134 12.0001L15.7134 9.71011C15.9027 9.52234 16.0092 9.26675 16.0092 9.00011C16.0092 8.73347 15.9027 8.47788 15.7134 8.29011ZM19.0735 4.92996C16.5628 2.3304 12.8447 1.28783 9.34843 2.20299C5.85213 3.11814 3.12168 5.84859 2.20653 9.34489C1.29138 12.8412 2.33394 16.5592 4.9335 19.07C7.44425 21.6695 11.1623 22.7121 14.6586 21.7969C18.1549 20.8818 20.8853 18.1513 21.8005 14.655C22.7156 11.1587 21.6731 7.44071 19.0735 4.92996ZM17.6646 17.66C14.9675 20.3602 10.7387 20.7792 7.56415 18.6608C4.38961 16.5425 3.15343 12.4767 4.61154 8.94982C6.06966 5.42293 9.816 3.41709 13.5596 4.15891C17.3033 4.90073 20.0016 8.18362 20.0046 12C20.0118 14.1235 19.1692 16.1616 17.6646 17.66Z" fill="#3E3E3E"/>
</svg>
