<svg width="489" height="40" viewBox="0 0 489 40" fill="none" xmlns="http://www.w3.org/2000/svg">
<path d="M20.1591 0.890281C25.4221 0.890281 29.9568 2.76209 33.763 6.50571L28.3356 11.9332C26.033 9.66194 23.3232 8.52632 20.2061 8.52632C17.0264 8.52632 14.3166 9.66194 12.0767 11.9332C9.82112 14.1887 8.69334 16.9064 8.69334 20.0861C8.69334 23.2658 9.82112 25.9835 12.0767 28.2391C14.3009 30.4946 17.0107 31.6224 20.2061 31.6224C22.5557 31.6224 24.6938 30.9645 26.6204 29.6488C28.3904 28.4427 29.714 26.892 30.5912 24.9967H19.7832V17.7366H39.2375C39.7387 24.2057 37.8983 29.5156 33.7161 33.6665C29.9411 37.4101 25.4143 39.2819 20.1357 39.2819C14.81 39.2819 10.291 37.4101 6.57874 33.6665C2.81946 29.9386 0.939819 25.4118 0.939819 20.0861C0.939819 14.8075 2.81946 10.2728 6.57874 6.48221C10.3067 2.70727 14.8257 0.819794 20.1357 0.819794L20.1591 0.890281Z" fill="#272525"/>
<path d="M53.207 1.12524H60.8195V39H53.207V1.12524Z" fill="#272525"/>
<path d="M98.9424 1.03125V8.6203H83.7173V16.2563H95.1361V23.8454H83.7173V39.047H76.1048V1.03125H98.9424Z" fill="#272525"/>
<path d="M137.676 1.12524V8.66729H128.372V39H120.736V8.66729H111.408V1.12524H137.676Z" fill="#272525"/>
<path d="M162.101 31.5519C163.198 31.5519 164.2 31.1682 165.109 30.4006C166.048 29.6175 166.518 28.7168 166.518 27.6987C166.518 26.2263 165.641 25.0985 163.887 24.3153C163.307 24.049 162.516 23.7749 161.514 23.493L160.903 23.3285L160.339 23.164C159.9 23.0544 159.54 22.9526 159.258 22.8586C156.783 22.0127 154.763 20.7048 153.196 18.9348C151.442 16.9769 150.565 14.7761 150.565 12.3326C150.565 9.13721 151.701 6.41173 153.972 4.15616C156.227 1.91625 158.953 0.796299 162.148 0.796299C165.046 0.796299 167.576 1.75178 169.737 3.66275C171.899 5.54239 173.175 7.89977 173.567 10.7349L166.001 12.3326C166.001 11.2831 165.626 10.3825 164.874 9.63061C164.122 8.87875 163.229 8.50283 162.195 8.50283C161.13 8.50283 160.222 8.87875 159.47 9.63061C158.702 10.3981 158.318 11.3066 158.318 12.3561C158.318 13.8285 159.149 15.0033 160.809 15.8804C161.42 16.2094 162.179 16.5148 163.088 16.7967C163.386 16.8907 163.762 17.0082 164.216 17.1492L164.756 17.2901L165.273 17.4546C167.842 18.1908 169.941 19.4204 171.57 21.1434C173.371 23.0387 174.272 25.2395 174.272 27.7456C174.272 30.894 173.05 33.6117 170.607 35.8986C168.21 38.1542 165.398 39.2819 162.172 39.2819C159.227 39.2819 156.595 38.3343 154.277 36.439C151.959 34.528 150.581 32.1628 150.142 29.3433L157.708 27.7456C157.708 28.7638 158.177 29.6644 159.117 30.4476C160.026 31.1995 161.036 31.5754 162.148 31.5754L162.101 31.5519Z" fill="#272525"/>
<path d="M229.066 10.8289C228.91 10.1553 228.573 9.59145 228.056 9.13721C227.492 8.66729 226.842 8.43234 226.106 8.43234C224.43 8.43234 223.451 9.1842 223.169 10.6879C223.09 11.0952 223.357 11.8862 223.968 13.061C224.86 14.7996 225.8 16.3268 226.787 17.6426C227.351 18.4101 228.119 19.3029 229.09 20.3211L230.382 21.6603C230.93 22.2399 231.392 22.7254 231.768 23.117C232.645 24.0725 233.335 24.7696 233.836 25.2081C233.977 24.5346 234.071 23.7279 234.118 22.7881C234.133 22.4905 234.149 22.0597 234.165 21.4958L234.188 20.8145L234.212 20.0861L241.331 19.9921C241.221 24.4406 240.696 27.7065 239.757 29.7898L240.015 29.9542L240.297 30.1422C240.532 30.2832 240.736 30.4085 240.908 30.5181C241.409 30.8157 241.863 31.0663 242.271 31.27C243.414 31.8339 244.424 32.1002 245.302 32.0688L245.278 39.1175C243.649 39.1175 242.012 38.7885 240.368 38.1307C239.741 37.8644 239.075 37.5433 238.37 37.1673C238.088 37.0107 237.783 36.8384 237.454 36.6504C237.25 36.5251 236.969 36.3528 236.608 36.1335C236.17 35.8829 235.786 35.6088 235.457 35.3112C234.047 36.9246 232.089 38.0523 229.583 38.6946C227.797 39.1488 226.184 39.3759 224.743 39.3759C221.219 39.3759 218.235 38.1855 215.791 35.8046C213.363 33.4551 212.149 30.5886 212.149 27.2053C212.196 25.0123 212.752 23.2345 213.818 21.8718C214.883 20.509 216.003 19.2638 217.177 18.136C217.287 18.0263 217.499 17.854 217.812 17.6191C217.232 16.8202 216.7 15.7629 216.214 14.4472C215.682 13.0218 215.4 11.753 215.368 10.6409C215.368 8.24438 216.332 6.08279 218.258 4.15616C219.104 3.31032 220.224 2.55063 221.618 1.87709C223.231 1.10957 224.727 0.725812 226.106 0.725812C228.706 0.725812 231.008 1.57948 233.013 3.28682C234.893 4.88452 236.099 6.86597 236.632 9.23119L229.066 10.8289ZM224.767 31.9279C225.534 31.9279 226.45 31.7555 227.515 31.4109C228.643 31.035 229.34 30.6434 229.607 30.2362V30.2597C229.168 29.8837 228.119 28.9439 226.458 27.4402C224.782 25.9365 223.419 24.3153 222.37 22.5766C221.681 23.0779 220.999 23.6653 220.326 24.3388C219.652 25.0123 219.339 26.007 219.386 27.3227C219.386 27.9649 219.566 28.6385 219.926 29.3433C220.24 29.9386 220.616 30.4398 221.054 30.8471C221.79 31.5676 223.028 31.9279 224.767 31.9279Z" fill="#272525"/>
<path d="M303.15 25.678L321.688 0.232407V39H314.076V23.305L303.15 38.3891L292.201 23.305V39H284.589V0.232407L303.15 25.678Z" fill="#272525"/>
<path d="M359.835 1.03125V8.6203H344.61V16.2563H356.028V23.8454H344.61V31.4814H359.835V39.047H336.997V1.03125H359.835Z" fill="#272525"/>
<path d="M373.71 1.12524H386.069C390.079 1.12524 393.384 2.40966 395.984 4.9785C397.253 6.24726 398.153 7.44553 398.686 8.57331C399.328 9.95172 399.649 11.6199 399.649 13.5779V14.5647C399.649 17.1178 398.85 19.5222 397.253 21.7778C396.109 23.3755 394.598 24.5424 392.718 25.2786L401.529 39H392.225L381.346 22.2477V39H373.734L373.71 1.12524ZM386.797 19.1463C388.176 19.1463 389.358 18.6216 390.345 17.5721C391.316 16.5226 391.802 15.2695 391.802 13.8128C391.802 12.4344 391.3 11.2205 390.298 10.171C389.264 9.16853 387.698 8.66729 385.599 8.66729H381.323V19.1228H384.26V19.1463H386.797Z" fill="#272525"/>
<path d="M446.818 33.6665C443.059 37.3945 438.516 39.2584 433.19 39.2584C427.896 39.2428 423.377 37.3788 419.634 33.6665C415.874 29.9072 413.995 25.3804 413.995 20.0861C413.995 14.8075 415.874 10.2728 419.634 6.48221C423.409 2.70727 427.927 0.819794 433.19 0.819794L433.167 0.913776C438.367 0.913776 442.91 2.78559 446.794 6.5292L441.367 11.9567C439.08 9.7011 436.362 8.57331 433.214 8.57331C430.019 8.57331 427.309 9.7011 425.085 11.9567C422.829 14.2436 421.701 16.9612 421.701 20.1096C421.701 23.2893 422.829 26.007 425.085 28.2626C427.324 30.5025 430.034 31.6224 433.214 31.6224C436.409 31.6224 439.135 30.4946 441.39 28.2391L446.818 33.6665Z" fill="#272525"/>
<path d="M468.306 1.12524V16.2798H480.97V1.12524H488.559V39H480.97V23.8219H468.306V39H460.717V1.12524H468.306Z" fill="#272525"/>
</svg>
